<?xml version="1.0" encoding="UTF-8" standalone="no"?><!DOCTYPE svg PUBLIC "-//W3C//DTD SVG 1.1//EN" "http://www.w3.org/Graphics/SVG/1.1/DTD/svg11.dtd"><svg width="100%" height="100%" viewBox="0 0 489 93" version="1.1" xmlns="http://www.w3.org/2000/svg" xmlns:xlink="http://www.w3.org/1999/xlink" xml:space="preserve" xmlns:serif="http://www.serif.com/" style="fill-rule:evenodd;clip-rule:evenodd;stroke-linecap:round;stroke-linejoin:round;stroke-miterlimit:1.5;"><g><path d="M49.926,0.484c3.862,-1.289 8.115,0.056 10.534,3.332c6.804,9.213 20.439,27.674 27.243,36.888c2.419,3.275 2.454,7.735 0.087,11.048c-6.66,9.318 -20.005,27.991 -26.664,37.309c-2.368,3.313 -6.599,4.724 -10.481,3.496c-10.92,-3.454 -32.803,-10.375 -43.723,-13.83c-3.882,-1.227 -6.532,-4.815 -6.564,-8.887c-0.089,-11.453 -0.268,-34.403 -0.358,-45.857c-0.031,-4.071 2.562,-7.7 6.424,-8.988c10.865,-3.625 32.637,-10.887 43.502,-14.511Z" style="fill:url(#_Radial1);"/><g><g><path d="M24.096,24.385c-0,-1.402 0.781,-2.689 2.025,-3.335c3.266,-1.698 9.635,-5.008 12.673,-6.588c1.063,-0.552 2.326,-0.565 3.4,-0.034c3.109,1.538 9.68,4.787 13.052,6.454c1.281,0.634 2.093,1.94 2.093,3.37l-0,14.117c-0,1.338 -0.711,2.575 -1.867,3.248c-3.149,1.836 -9.477,5.524 -12.564,7.323c-1.106,0.645 -2.463,0.682 -3.603,0.1c-3.204,-1.636 -9.808,-5.01 -13.16,-6.723c-1.258,-0.642 -2.049,-1.936 -2.049,-3.348l-0,-14.584Z" style="fill:#fff;"/><path d="M54.241,23.378l-13.51,7.347" style="fill:none;stroke:url(#_Linear2);stroke-width:2.82px;"/><path d="M28.064,24.223l12.329,6.249l0.338,17.057" style="fill:none;stroke:url(#_Linear3);stroke-width:2.82px;"/></g><g><path d="M38.54,46.168c-0,-1.403 0.781,-2.689 2.026,-3.336c3.265,-1.697 9.634,-5.007 12.673,-6.587c1.063,-0.552 2.326,-0.565 3.4,-0.034c3.109,1.537 9.679,4.787 13.051,6.454c1.282,0.634 2.093,1.94 2.093,3.37l-0,14.117c-0,1.338 -0.711,2.575 -1.866,3.248c-3.15,1.836 -9.478,5.524 -12.564,7.323c-1.106,0.645 -2.464,0.682 -3.604,0.1c-3.203,-1.637 -9.807,-5.01 -13.16,-6.723c-1.257,-0.643 -2.049,-1.936 -2.049,-3.348l-0,-14.584Z" style="fill:#fff;"/><path d="M68.686,45.161l-13.511,7.347" style="fill:none;stroke:url(#_Linear4);stroke-width:2.82px;"/><path d="M42.509,46.006l12.328,6.248l0.338,17.058" style="fill:none;stroke:url(#_Linear5);stroke-width:2.82px;"/></g><g><path d="M9.424,46.182c0,-1.403 0.781,-2.689 2.026,-3.336c3.265,-1.697 9.634,-5.008 12.673,-6.587c1.063,-0.552 2.326,-0.565 3.4,-0.034c3.109,1.537 9.679,4.787 13.051,6.454c1.282,0.634 2.093,1.94 2.093,3.37l0,14.117c0,1.338 -0.711,2.575 -1.866,3.248c-3.15,1.836 -9.478,5.524 -12.564,7.323c-1.106,0.645 -2.464,0.682 -3.604,0.1c-3.203,-1.637 -9.807,-5.01 -13.16,-6.723c-1.257,-0.643 -2.049,-1.936 -2.049,-3.348l0,-14.584Z" style="fill:#fff;"/><path d="M39.57,45.175l-13.511,7.347" style="fill:none;stroke:url(#_Linear6);stroke-width:2.82px;"/><path d="M13.393,46.02l12.328,6.248l0.338,17.057" style="fill:none;stroke:url(#_Linear7);stroke-width:2.82px;"/></g></g></g><path d="M124.701,73.12c13.951,-0 23.779,-9.74 23.779,-23.603c-0,-13.688 -9.828,-23.428 -23.779,-23.428c-13.776,0 -23.603,9.74 -23.603,23.428c-0,13.863 9.827,23.603 23.603,23.603Zm-0,-11.407c-6.405,0 -11.056,-4.913 -11.056,-12.196c0,-7.108 4.651,-12.021 11.056,-12.021c6.668,-0 11.231,4.913 11.231,12.021c0,7.283 -4.563,12.196 -11.231,12.196Z" style="fill-rule:nonzero;"/><path d="M176.207,37.496c6.581,-0 11.231,4.913 11.231,12.196c-0,7.108 -4.65,12.021 -11.231,12.021c-6.406,0 -11.056,-4.913 -11.056,-12.021c-0,-7.283 4.65,-12.196 11.056,-12.196Zm-23.603,46.68c-0,3.51 2.895,6.405 6.493,6.405c3.422,0 6.317,-2.895 6.317,-6.405l0,-16.057c3.51,3.246 8.073,5.001 13.425,5.001c12.372,-0 21.146,-9.74 21.146,-23.428c0,-13.863 -9.827,-23.603 -23.778,-23.603c-13.864,0 -23.603,9.74 -23.603,23.603l-0,34.484Z" style="fill-rule:nonzero;"/><path d="M226.484,37.32c2.984,0 5.353,-2.457 5.353,-5.44c-0,-2.983 -2.369,-5.352 -5.353,-5.352l-3.071,-0l0,-6.23c0,-3.51 -2.808,-6.405 -6.317,-6.405c-3.598,-0 -6.494,2.895 -6.494,6.405l0,6.23l-3.071,-0c-2.983,-0 -5.352,2.369 -5.352,5.352c0,2.983 2.369,5.44 5.352,5.44l3.071,0l0,32.553c0,1.053 0.878,1.931 1.843,1.931l9.126,-0c0.965,-0 1.842,-0.878 1.842,-1.931l0,-32.553l3.071,0Z" style="fill-rule:nonzero;"/><path d="M256.844,73.12c13.951,-0 23.778,-9.74 23.778,-23.603c0,-13.688 -9.827,-23.428 -23.778,-23.428c-13.776,0 -23.603,9.74 -23.603,23.428c-0,13.863 9.827,23.603 23.603,23.603Zm-0,-11.407c-6.406,0 -11.056,-4.913 -11.056,-12.196c-0,-7.108 4.65,-12.021 11.056,-12.021c6.668,-0 11.231,4.913 11.231,12.021c-0,7.283 -4.563,12.196 -11.231,12.196Z" style="fill-rule:nonzero;"/><path d="M308.35,61.713c-6.406,0 -11.056,-4.913 -11.056,-12.196c-0,-7.108 4.65,-12.021 11.056,-12.021c6.58,-0 11.231,4.913 11.231,12.021c-0,7.283 -4.651,12.196 -11.231,12.196Zm-23.604,-12.196c0,13.863 9.74,23.603 23.604,23.603c13.951,-0 23.778,-9.74 23.778,-23.603c0,-13.688 -8.774,-23.428 -21.146,-23.428c-5.352,0 -9.915,1.755 -13.425,5.001l0,-16.057c0,-3.509 -2.896,-6.405 -6.318,-6.405c-3.597,-0 -6.493,2.896 -6.493,6.405l0,34.484Z" style="fill-rule:nonzero;"/><path d="M336.428,69.873c-0,1.053 0.877,1.931 1.842,1.931l9.126,-0c0.965,-0 1.842,-0.878 1.842,-1.931l0,-54.84c0,-3.509 -2.895,-6.405 -6.317,-6.405c-3.598,-0 -6.493,2.896 -6.493,6.405l-0,54.84Z" style="fill-rule:nonzero;"/><path d="M377.053,73.12c13.952,-0 23.779,-9.74 23.779,-23.603c0,-13.688 -9.827,-23.428 -23.779,-23.428c-13.775,0 -23.603,9.74 -23.603,23.428c0,13.863 9.828,23.603 23.603,23.603Zm0,-11.407c-6.405,0 -11.055,-4.913 -11.055,-12.196c-0,-7.108 4.65,-12.021 11.055,-12.021c6.669,-0 11.232,4.913 11.232,12.021c-0,7.283 -4.563,12.196 -11.232,12.196Z" style="fill-rule:nonzero;"/><path d="M404.517,49.517c0,13.688 9.828,23.428 23.604,23.428c5.176,-0 16.759,-1.58 16.759,-8.775c-0,-2.895 -2.369,-5.528 -5.704,-5.528c-1.228,0 -2.72,0.351 -4.211,1.229c-2.106,1.228 -4.212,1.667 -6.844,1.667c-6.406,-0 -11.056,-4.914 -11.056,-12.021c-0,-7.108 4.65,-12.021 11.056,-12.021c2.544,-0 4.65,0.439 6.844,1.667c1.491,0.877 2.983,1.228 4.211,1.228c3.335,0 5.704,-2.632 5.704,-5.528c-0,-7.107 -11.583,-8.774 -16.759,-8.774c-13.776,0 -23.604,9.74 -23.604,23.428Z" style="fill-rule:nonzero;"/><path d="M477.17,69.698c1.14,1.755 3.158,2.72 5.176,2.72c1.053,0 2.194,-0.263 3.159,-0.877c2.808,-1.843 3.773,-5.616 1.843,-8.336l-13.513,-18.865l8.862,-8.424c2.282,-2.105 2.106,-5.791 -0.087,-7.984c-1.053,-1.053 -2.457,-1.492 -3.773,-1.492c-1.58,0 -3.071,0.527 -4.212,1.667l-14.566,14.215l0,-27.289c0,-3.509 -2.895,-6.405 -6.317,-6.405c-3.598,-0 -6.493,2.896 -6.493,6.405l-0,54.84c-0,1.053 0.877,1.931 1.842,1.931l9.126,-0c0.965,-0 1.842,-0.878 1.842,-1.931l0,-12.459l5.177,-4.914l11.934,17.198Z" style="fill-rule:nonzero;"/><defs><radialGradient id="_Radial1" cx="0" cy="0" r="1" gradientUnits="userSpaceOnUse" gradientTransform="matrix(-15.6831,-64.2123,64.2123,-15.6831,48.0411,74.738)"><stop offset="0" style="stop-color:#da4032;stop-opacity:1"/><stop offset="1" style="stop-color:#521ad2;stop-opacity:1"/></radialGradient><linearGradient id="_Linear2" x1="0" y1="0" x2="1" y2="0" gradientUnits="userSpaceOnUse" gradientTransform="matrix(13.5106,0,0,13.5106,40.7305,27.0517)"><stop offset="0" style="stop-color:#a800f1;stop-opacity:1"/><stop offset="1" style="stop-color:#7b0eff;stop-opacity:1"/></linearGradient><linearGradient id="_Linear3" x1="0" y1="0" x2="1" y2="0" gradientUnits="userSpaceOnUse" gradientTransform="matrix(12.6662,0,0,12.6662,28.0642,35.8757)"><stop offset="0" style="stop-color:#5100f8;stop-opacity:1"/><stop offset="0.64" style="stop-color:#5f00f8;stop-opacity:1"/><stop offset="1" style="stop-color:#ad00f8;stop-opacity:1"/></linearGradient><linearGradient id="_Linear4" x1="0" y1="0" x2="1" y2="0" gradientUnits="userSpaceOnUse" gradientTransform="matrix(13.5106,0,0,13.5106,55.175,48.8345)"><stop offset="0" style="stop-color:#ff7745;stop-opacity:1"/><stop offset="0.48" style="stop-color:#ed5752;stop-opacity:1"/><stop offset="1" style="stop-color:#ba0077;stop-opacity:1"/></linearGradient><linearGradient id="_Linear5" x1="0" y1="0" x2="1" y2="0" gradientUnits="userSpaceOnUse" gradientTransform="matrix(12.6662,0,0,12.6662,42.5089,57.6586)"><stop offset="0" style="stop-color:#e300ad;stop-opacity:1"/><stop offset="0.64" style="stop-color:#e71199;stop-opacity:1"/><stop offset="0.83" style="stop-color:#f23f65;stop-opacity:1"/><stop offset="1" style="stop-color:#ff7329;stop-opacity:1"/></linearGradient><linearGradient id="_Linear6" x1="0" y1="0" x2="1" y2="0" gradientUnits="userSpaceOnUse" gradientTransform="matrix(13.5106,0,0,13.5106,26.0592,48.8484)"><stop offset="0" style="stop-color:#dd00be;stop-opacity:1"/><stop offset="1" style="stop-color:#af00ea;stop-opacity:1"/></linearGradient><linearGradient id="_Linear7" x1="0" y1="0" x2="1" y2="0" gradientUnits="userSpaceOnUse" gradientTransform="matrix(12.6662,0,0,12.6662,13.3929,57.6727)"><stop offset="0" style="stop-color:#7b00d6;stop-opacity:1"/><stop offset="0.64" style="stop-color:#8b00d3;stop-opacity:1"/><stop offset="1" style="stop-color:#e300c4;stop-opacity:1"/></linearGradient></defs></svg>