<?xml version="1.0" encoding="UTF-8" standalone="no"?><!DOCTYPE svg PUBLIC "-//W3C//DTD SVG 1.1//EN" "http://www.w3.org/Graphics/SVG/1.1/DTD/svg11.dtd"><svg width="100%" height="100%" viewBox="0 0 489 513" version="1.1" xmlns="http://www.w3.org/2000/svg" xmlns:xlink="http://www.w3.org/1999/xlink" xml:space="preserve" xmlns:serif="http://www.serif.com/" style="fill-rule:evenodd;clip-rule:evenodd;stroke-linecap:round;stroke-linejoin:round;stroke-miterlimit:1.5;"><g><path d="M265.893,11.495c20.548,-6.854 43.173,0.302 56.042,17.727c36.2,49.015 108.738,147.233 144.938,196.249c12.869,17.424 13.054,41.153 0.46,58.776c-35.43,49.575 -106.426,148.915 -141.856,198.489c-12.595,17.624 -35.105,25.133 -55.758,18.6c-58.097,-18.376 -174.513,-55.199 -232.61,-73.576c-20.653,-6.532 -34.75,-25.621 -34.92,-47.281c-0.476,-60.932 -1.429,-183.03 -1.905,-243.962c-0.169,-21.661 13.628,-40.967 34.176,-47.821c57.803,-19.282 173.63,-57.919 231.433,-77.201Z" style="fill:url(#_Radial1);"/><g><g><path d="M128.473,138.654c0,-7.462 4.155,-14.304 10.776,-17.746c17.374,-9.03 51.257,-26.642 67.422,-35.044c5.656,-2.94 12.375,-3.007 18.089,-0.182c16.54,8.179 51.495,25.465 69.434,34.336c6.819,3.372 11.135,10.32 11.135,17.928c-0,19.335 -0,56.354 -0,75.105c-0,7.116 -3.781,13.696 -9.929,17.28c-16.756,9.766 -50.422,29.388 -66.842,38.959c-5.883,3.429 -13.106,3.629 -19.17,0.531c-17.044,-8.707 -52.178,-26.656 -70.014,-35.767c-6.69,-3.418 -10.901,-10.298 -10.901,-17.811c0,-19.649 0,-58.001 0,-77.589Z" style="fill:#fff;"/><path d="M288.85,133.298l-71.877,39.084" style="fill:none;stroke:url(#_Linear2);stroke-width:15px;"/><path d="M149.587,137.791l65.589,33.243l1.797,90.746" style="fill:none;stroke:url(#_Linear3);stroke-width:15px;"/></g><g><path d="M205.319,254.541c0,-7.463 4.155,-14.304 10.777,-17.746c17.373,-9.031 51.257,-26.642 67.421,-35.044c5.656,-2.94 12.375,-3.008 18.09,-0.182c16.539,8.179 51.495,25.465 69.434,34.336c6.819,3.372 11.134,10.32 11.134,17.927c0,19.336 0,56.355 0,75.106c0,7.116 -3.781,13.696 -9.928,17.279c-16.756,9.767 -50.422,29.389 -66.843,38.96c-5.883,3.429 -13.106,3.629 -19.17,0.531c-17.044,-8.707 -52.178,-26.656 -70.013,-35.768c-6.691,-3.418 -10.902,-10.297 -10.902,-17.81c0,-19.649 0,-58.002 0,-77.589Z" style="fill:#fff;"/><path d="M365.697,249.185l-71.878,39.084" style="fill:none;stroke:url(#_Linear4);stroke-width:15px;"/><path d="M226.434,253.677l65.588,33.244l1.797,90.746" style="fill:none;stroke:url(#_Linear5);stroke-width:15px;"/></g><g><path d="M50.42,254.615c0,-7.462 4.155,-14.304 10.776,-17.746c17.374,-9.03 51.257,-26.642 67.422,-35.044c5.656,-2.94 12.375,-3.007 18.089,-0.181c16.54,8.178 51.495,25.464 69.434,34.335c6.819,3.372 11.135,10.321 11.135,17.928c-0,19.336 -0,56.355 -0,75.106c-0,7.116 -3.781,13.696 -9.929,17.279c-16.756,9.766 -50.422,29.389 -66.842,38.959c-5.883,3.429 -13.106,3.63 -19.17,0.532c-17.044,-8.707 -52.178,-26.656 -70.014,-35.768c-6.69,-3.418 -10.901,-10.297 -10.901,-17.81c0,-19.649 0,-58.002 0,-77.59Z" style="fill:#fff;"/><path d="M210.797,249.26l-71.877,39.083" style="fill:none;stroke:url(#_Linear6);stroke-width:15px;"/><path d="M71.534,253.752l65.589,33.243l1.797,90.746" style="fill:none;stroke:url(#_Linear7);stroke-width:15px;"/></g></g></g><defs><radialGradient id="_Radial1" cx="0" cy="0" r="1" gradientUnits="userSpaceOnUse" gradientTransform="matrix(-83.4357,-341.616,341.616,-83.4357,255.866,406.536)"><stop offset="0" style="stop-color:#da4032;stop-opacity:1"/><stop offset="1" style="stop-color:#521ad2;stop-opacity:1"/></radialGradient><linearGradient id="_Linear2" x1="0" y1="0" x2="1" y2="0" gradientUnits="userSpaceOnUse" gradientTransform="matrix(71.8778,0,0,39.0836,216.973,152.84)"><stop offset="0" style="stop-color:#a800f1;stop-opacity:1"/><stop offset="1" style="stop-color:#7b0eff;stop-opacity:1"/></linearGradient><linearGradient id="_Linear3" x1="0" y1="0" x2="1" y2="0" gradientUnits="userSpaceOnUse" gradientTransform="matrix(67.3854,0,0,123.989,149.587,199.785)"><stop offset="0" style="stop-color:#5100f8;stop-opacity:1"/><stop offset="0.64" style="stop-color:#5f00f8;stop-opacity:1"/><stop offset="1" style="stop-color:#ad00f8;stop-opacity:1"/></linearGradient><linearGradient id="_Linear4" x1="0" y1="0" x2="1" y2="0" gradientUnits="userSpaceOnUse" gradientTransform="matrix(71.8778,0,0,39.0836,293.819,268.727)"><stop offset="0" style="stop-color:#ff7745;stop-opacity:1"/><stop offset="0.48" style="stop-color:#ed5752;stop-opacity:1"/><stop offset="1" style="stop-color:#ba0077;stop-opacity:1"/></linearGradient><linearGradient id="_Linear5" x1="0" y1="0" x2="1" y2="0" gradientUnits="userSpaceOnUse" gradientTransform="matrix(67.3854,0,0,123.989,226.434,315.672)"><stop offset="0" style="stop-color:#e300ad;stop-opacity:1"/><stop offset="0.64" style="stop-color:#e71199;stop-opacity:1"/><stop offset="0.83" style="stop-color:#f23f65;stop-opacity:1"/><stop offset="1" style="stop-color:#ff7329;stop-opacity:1"/></linearGradient><linearGradient id="_Linear6" x1="0" y1="0" x2="1" y2="0" gradientUnits="userSpaceOnUse" gradientTransform="matrix(71.8778,0,0,39.0836,138.92,268.801)"><stop offset="0" style="stop-color:#dd00be;stop-opacity:1"/><stop offset="1" style="stop-color:#af00ea;stop-opacity:1"/></linearGradient><linearGradient id="_Linear7" x1="0" y1="0" x2="1" y2="0" gradientUnits="userSpaceOnUse" gradientTransform="matrix(67.3854,0,0,123.989,71.5342,315.747)"><stop offset="0" style="stop-color:#7b00d6;stop-opacity:1"/><stop offset="0.64" style="stop-color:#8b00d3;stop-opacity:1"/><stop offset="1" style="stop-color:#e300c4;stop-opacity:1"/></linearGradient></defs></svg>